# xmcd CD database file
#
# Track frame offsets:
#	150
#	11420
#	23565
#	37785
#	49850
#	68513
#	88043
#	97443
#	110620
#	124298
#	138740
#	154485
#
# Disc length: 2228 seconds
#
# Revision: 0
# Processed by: cddbd v1.4PL0 Copyright (c) Steve Scherf et al.
# Submitted via: CDex 1.50beta9
#
DISCID=a108b20c
DTITLE=Annie Ross  - A Hundred of Songs
DYEAR=1994
DGENRE=Jazz
TTITLE0=A Hundred of Songs
TTITLE1=All of You
TTITLE2=Fly Me To The Moon
TTITLE3=Nature Boy
TTITLE4=What's New
TTITLE5=Love For Sale
TTITLE6=A Lot Of Livin To Do
TTITLE7=Let Me Love You
TTITLE8=Al  The Things You Are
TTITLE9=I'm Gonna go Fishin'
TTITLE10=Like Someone In Love
TTITLE11=Lime House Blues
EXTD=YEAR: 1994
EXTT0=
EXTT1=
EXTT2=
EXTT3=
EXTT4=
EXTT5=
EXTT6=
EXTT7=
EXTT8=
EXTT9=
EXTT10=
EXTT11=
PLAYORDER=
